<svg width="128" height="109" viewBox="0 0 128 109" fill="none" xmlns="http://www.w3.org/2000/svg">
<rect width="128" height="109" rx="26" fill="#57C72E"/>
<path d="M34.8333 84.1667L75.6667 43.3333" stroke="white" stroke-width="5" stroke-linecap="round" stroke-linejoin="round"/>
<path d="M39.1208 56.5458L43.5833 52.0833L48.0458 56.5458C49.9516 58.4591 51.0216 61.0496 51.0216 63.75C51.0216 66.4505 49.9516 69.0409 48.0458 70.9542L43.5833 75.4167L39.1208 70.9542C37.2151 69.0409 36.1451 66.4505 36.1451 63.75C36.1451 61.0496 37.2151 58.4591 39.1208 56.5458Z" stroke="white" stroke-width="5" stroke-linecap="round" stroke-linejoin="round"/>
<path d="M50.7875 44.8792L55.25 40.4167L59.7125 44.8792C61.6183 46.7924 62.6883 49.3829 62.6883 52.0833C62.6883 54.7838 61.6183 57.3742 59.7125 59.2875L55.25 63.75L50.7875 59.2875C48.8817 57.3742 47.8117 54.7838 47.8117 52.0833C47.8117 49.3829 48.8817 46.7924 50.7875 44.8792Z" stroke="white" stroke-width="5" stroke-linecap="round" stroke-linejoin="round"/>
<path d="M62.4542 33.2125L66.9167 28.75L71.3792 33.2125C73.2849 35.1258 74.3549 37.7162 74.3549 40.4167C74.3549 43.1171 73.2849 45.7076 71.3792 47.6208L66.9167 52.0833L62.4542 47.6208C60.5484 45.7076 59.4784 43.1171 59.4784 40.4167C59.4784 37.7162 60.5484 35.1258 62.4542 33.2125Z" stroke="white" stroke-width="5" stroke-linecap="round" stroke-linejoin="round"/>
<path d="M87.3333 25.8333H93.1667V31.6667C93.1667 34.7609 91.9375 37.7283 89.7496 39.9162C87.5616 42.1042 84.5942 43.3333 81.5 43.3333H75.6667V37.5C75.6667 34.4058 76.8958 31.4383 79.0837 29.2504C81.2717 27.0625 84.2391 25.8333 87.3333 25.8333Z" stroke="white" stroke-width="5" stroke-linecap="round" stroke-linejoin="round"/>
<path d="M62.4542 70.9542L66.9167 75.4167L62.4542 79.8792C60.5409 81.7849 57.9505 82.8549 55.25 82.8549C52.5495 82.8549 49.9591 81.7849 48.0458 79.8792L43.5833 75.4167L48.0458 70.9542C49.9591 69.0484 52.5495 67.9784 55.25 67.9784C57.9505 67.9784 60.5409 69.0484 62.4542 70.9542Z" stroke="white" stroke-width="5" stroke-linecap="round" stroke-linejoin="round"/>
<path d="M74.1208 59.2875L78.5833 63.75L74.1208 68.2125C72.2076 70.1183 69.6171 71.1883 66.9167 71.1883C64.2162 71.1883 61.6258 70.1183 59.7125 68.2125L55.25 63.75L59.7125 59.2875C61.6258 57.3818 64.2162 56.3117 66.9167 56.3117C69.6171 56.3117 72.2076 57.3818 74.1208 59.2875Z" stroke="white" stroke-width="5" stroke-linecap="round" stroke-linejoin="round"/>
<path d="M84.3589 47.6208L88.8214 52.0833L84.3589 56.5458C82.4457 58.4516 79.8552 59.5216 77.1548 59.5216C74.4543 59.5216 71.8639 58.4516 69.9506 56.5458L65.4881 52.0833L69.9506 47.6208C71.8639 45.7151 74.4543 44.6451 77.1548 44.6451C79.8552 44.6451 82.4457 45.7151 84.3589 47.6208Z" stroke="white" stroke-width="5" stroke-linecap="round" stroke-linejoin="round"/>
</svg>
